<svg width="273" height="48" viewBox="0 0 273 48" fill="none" xmlns="http://www.w3.org/2000/svg">
<path d="M27.5534 13.9394C26.3826 10.9194 24.2009 8.39886 21.38 6.80714C18.5591 5.21542 15.2736 4.65104 12.0832 5.21018C8.89288 5.76931 5.9951 7.41736 3.88364 9.87351C1.77218 12.3297 0.577673 15.4419 0.503656 18.6801C0.429639 21.9182 1.48069 25.0818 3.47772 27.6319C5.47475 30.1819 8.2942 31.9607 11.4557 32.665C14.6171 33.3693 17.925 32.9557 20.8157 31.4945C23.7063 30.0333 26.0009 27.6151 27.3085 24.6517L14.5 19L27.5534 13.9394Z" fill="#D3F85A"/>
<circle cx="6.5" cy="19" r="2" fill="#090F1D"/>
<path d="M58.708 45.144C58.132 45.592 57.0227 46.0933 55.38 46.648C53.7587 47.2027 51.9773 47.48 50.036 47.48C46.3453 47.48 43.316 46.3387 40.948 44.056C38.6013 41.7733 37.428 38.8933 37.428 35.416C37.428 31.9387 38.6653 29.016 41.14 26.648C43.6147 24.28 46.7293 23.096 50.484 23.096C53.1293 23.096 55.828 23.5547 58.58 24.472L59.22 30.008L58.932 30.104C57.2467 27.7573 55.7853 26.1147 54.548 25.176C53.3107 24.2373 51.86 23.768 50.196 23.768C48.8307 23.768 47.636 24.056 46.612 24.632C45.6093 25.1867 44.8093 25.9973 44.212 27.064C43.6147 28.1307 43.1773 29.3573 42.9 30.744C42.6227 32.1093 42.484 33.6667 42.484 35.416C42.484 38.936 43.124 41.72 44.404 43.768C45.684 45.7947 47.572 46.808 50.068 46.808C52.0307 46.808 53.6733 46.168 54.996 44.888C56.3187 43.608 57.6733 41.6347 59.06 38.968L59.348 39.064L58.708 45.144ZM62.2853 47V46.936C62.7759 45.336 63.0213 43.3733 63.0213 41.048V37.336C63.0213 35.5013 62.5199 33.976 61.5173 32.76V32.696L66.9893 30.936V34.84H67.0213C67.1279 34.7333 67.3946 34.4347 67.8213 33.944C68.2479 33.4533 68.5786 33.0907 68.8133 32.856C69.0693 32.6213 69.3999 32.3333 69.8053 31.992C70.2319 31.6507 70.6586 31.416 71.0853 31.288C71.5119 31.1387 71.9493 31.0747 72.3973 31.096L72.1093 35.672H71.9493C71.6293 35.3093 71.1386 34.9893 70.4773 34.712C69.8373 34.4347 69.3146 34.296 68.9093 34.296C68.3546 34.296 67.7573 34.68 67.1173 35.448V41.048C67.1173 43.6507 67.3626 45.6133 67.8533 46.936V47H62.2853ZM81.006 31.672C80.0033 31.672 79.214 32.1733 78.638 33.176C78.0833 34.1787 77.7633 35.4587 77.678 37.016L83.566 36.888V36.152C83.566 33.1653 82.7127 31.672 81.006 31.672ZM87.63 42.584C87.182 44.056 86.382 45.24 85.23 46.136C84.0993 47.032 82.6913 47.48 81.006 47.48C78.7873 47.48 76.9847 46.7333 75.598 45.24C74.2327 43.7253 73.55 41.8373 73.55 39.576C73.55 37.1013 74.3073 35.0747 75.822 33.496C77.3367 31.896 79.118 31.096 81.166 31.096C83.1073 31.096 84.6753 31.7787 85.87 33.144C87.086 34.488 87.6727 35.9707 87.63 37.592L77.678 37.56V37.656C77.678 39.96 78.158 41.656 79.118 42.744C80.0993 43.8107 81.4327 44.344 83.118 44.344C84.9527 44.344 86.3927 43.7253 87.438 42.488L87.63 42.584ZM95.1895 45.272C95.9788 45.272 96.6615 45.0587 97.2375 44.632V39.608C94.3788 40.3333 92.9495 41.5387 92.9495 43.224C92.9495 43.864 93.1415 44.3653 93.5255 44.728C93.9308 45.0907 94.4855 45.272 95.1895 45.272ZM100.342 47.416C99.4882 47.416 98.8055 47.2133 98.2935 46.808C97.7815 46.4027 97.4615 45.8587 97.3335 45.176C96.1175 46.712 94.5922 47.48 92.7575 47.48C91.7335 47.48 90.8908 47.2347 90.2295 46.744C89.5895 46.2533 89.2695 45.5173 89.2695 44.536C89.2695 41.8907 91.9255 40.056 97.2375 39.032V36.216C97.2375 35.2773 97.0135 34.584 96.5655 34.136C96.1175 33.688 95.3388 33.464 94.2295 33.464C92.6722 33.464 91.2748 33.8587 90.0375 34.648L89.8775 34.424C91.6268 32.2053 93.9308 31.096 96.7895 31.096C98.3682 31.096 99.5202 31.4587 100.246 32.184C100.971 32.9093 101.334 33.88 101.334 35.096V43.8C101.334 44.7387 101.771 45.208 102.646 45.208C103.136 45.208 103.606 45.0373 104.054 44.696L104.118 44.792C103.264 46.5413 102.006 47.416 100.342 47.416ZM110.3 47.48C107.655 47.48 106.332 46.104 106.332 43.352V32.216H104.572V31.992L110.108 27.928H110.428V31.576H114.428V32.216H110.428V43.224C110.428 44.8667 111.186 45.688 112.7 45.688C113.042 45.688 113.372 45.6453 113.692 45.56C114.012 45.4747 114.247 45.4 114.396 45.336C114.546 45.2507 114.642 45.1867 114.684 45.144L114.78 45.24C113.82 46.7333 112.327 47.48 110.3 47.48ZM121.46 25.976C121.46 26.616 121.226 27.16 120.756 27.608C120.308 28.056 119.764 28.28 119.124 28.28C118.484 28.28 117.94 28.056 117.492 27.608C117.044 27.16 116.82 26.616 116.82 25.976C116.82 25.3573 117.044 24.824 117.492 24.376C117.94 23.9067 118.484 23.672 119.124 23.672C119.764 23.672 120.308 23.9067 120.756 24.376C121.226 24.824 121.46 25.3573 121.46 25.976ZM116.628 46.936C117.14 45.0373 117.396 43.0747 117.396 41.048V37.432C117.396 35.5547 116.884 34.04 115.86 32.888V32.696L121.46 30.936V41.048C121.46 43.6293 121.706 45.592 122.196 46.936V47H116.628V46.936ZM125.395 35.864C124.627 33.9013 123.869 32.4933 123.123 31.64V31.576H129.747V31.64C129.491 32.0453 129.341 32.5893 129.299 33.272C129.277 33.9547 129.427 34.776 129.747 35.736L132.147 42.072L134.451 36.344C134.707 35.6613 134.845 34.9893 134.867 34.328C134.888 33.6453 134.835 33.1013 134.707 32.696C134.579 32.2693 134.419 31.9173 134.227 31.64V31.576H137.907V31.64C136.904 32.728 136.029 34.1787 135.283 35.992L130.739 47.288H129.907L125.395 35.864ZM145.319 31.672C144.316 31.672 143.527 32.1733 142.951 33.176C142.396 34.1787 142.076 35.4587 141.991 37.016L147.879 36.888V36.152C147.879 33.1653 147.025 31.672 145.319 31.672ZM151.943 42.584C151.495 44.056 150.695 45.24 149.543 46.136C148.412 47.032 147.004 47.48 145.319 47.48C143.1 47.48 141.297 46.7333 139.911 45.24C138.545 43.7253 137.863 41.8373 137.863 39.576C137.863 37.1013 138.62 35.0747 140.135 33.496C141.649 31.896 143.431 31.096 145.479 31.096C147.42 31.096 148.988 31.7787 150.183 33.144C151.399 34.488 151.985 35.9707 151.943 37.592L141.991 37.56V37.656C141.991 39.96 142.471 41.656 143.431 42.744C144.412 43.8107 145.745 44.344 147.431 44.344C149.265 44.344 150.705 43.7253 151.751 42.488L151.943 42.584Z" fill="#FFFFFD"/>
<path d="M159.502 45.272C160.291 45.272 160.974 45.0587 161.55 44.632V39.608C158.691 40.3333 157.262 41.5387 157.262 43.224C157.262 43.864 157.454 44.3653 157.838 44.728C158.243 45.0907 158.798 45.272 159.502 45.272ZM164.654 47.416C163.801 47.416 163.118 47.2133 162.606 46.808C162.094 46.4027 161.774 45.8587 161.646 45.176C160.43 46.712 158.905 47.48 157.07 47.48C156.046 47.48 155.203 47.2347 154.542 46.744C153.902 46.2533 153.582 45.5173 153.582 44.536C153.582 41.8907 156.238 40.056 161.55 39.032V36.216C161.55 35.2773 161.326 34.584 160.878 34.136C160.43 33.688 159.651 33.464 158.542 33.464C156.985 33.464 155.587 33.8587 154.35 34.648L154.19 34.424C155.939 32.2053 158.243 31.096 161.102 31.096C162.681 31.096 163.833 31.4587 164.558 32.184C165.283 32.9093 165.646 33.88 165.646 35.096V43.8C165.646 44.7387 166.083 45.208 166.958 45.208C167.449 45.208 167.918 45.0373 168.366 44.696L168.43 44.792C167.577 46.5413 166.318 47.416 164.654 47.416ZM169.66 47V46.936C170.151 45.336 170.396 43.3733 170.396 41.048V37.336C170.396 35.5013 169.895 33.976 168.892 32.76V32.696L174.364 30.936V34.84H174.396C174.503 34.7333 174.77 34.4347 175.196 33.944C175.623 33.4533 175.954 33.0907 176.188 32.856C176.444 32.6213 176.775 32.3333 177.18 31.992C177.607 31.6507 178.034 31.416 178.46 31.288C178.887 31.1387 179.324 31.0747 179.772 31.096L179.484 35.672H179.324C179.004 35.3093 178.514 34.9893 177.852 34.712C177.212 34.4347 176.69 34.296 176.284 34.296C175.73 34.296 175.132 34.68 174.492 35.448V41.048C174.492 43.6507 174.738 45.6133 175.228 46.936V47H169.66ZM186.738 47.48C184.092 47.48 182.77 46.104 182.77 43.352V32.216H181.01V31.992L186.546 27.928H186.866V31.576H190.866V32.216H186.866V43.224C186.866 44.8667 187.623 45.688 189.138 45.688C189.479 45.688 189.81 45.6453 190.13 45.56C190.45 45.4747 190.684 45.4 190.834 45.336C190.983 45.2507 191.079 45.1867 191.122 45.144L191.218 45.24C190.258 46.7333 188.764 47.48 186.738 47.48Z" fill="#D3F85A"/>
</svg>
